<mxfile host="Electron" agent="Mozilla/5.0 (Windows NT 10.0; Win64; x64) AppleWebKit/537.36 (KHTML, like Gecko) draw.io/24.7.17 Chrome/128.0.6613.36 Electron/32.0.1 Safari/537.36" version="24.7.17">
  <diagram name="Page-1" id="jQNx7RGsrZUIjm46Ge99">
    <mxGraphModel dx="2552" dy="1308" grid="1" gridSize="10" guides="1" tooltips="1" connect="1" arrows="1" fold="1" page="1" pageScale="1" pageWidth="1600" pageHeight="900" math="0" shadow="0">
      <root>
        <mxCell id="0" />
        <mxCell id="1" parent="0" />
        <mxCell id="-LDN6dIt5EzkJQRvpiWm-1" value="" style="rounded=1;whiteSpace=wrap;html=1;" vertex="1" parent="1">
          <mxGeometry x="40" y="40" width="1520" height="130" as="geometry" />
        </mxCell>
        <mxCell id="-LDN6dIt5EzkJQRvpiWm-2" value="" style="whiteSpace=wrap;html=1;aspect=fixed;" vertex="1" parent="1">
          <mxGeometry x="70" y="65" width="80" height="80" as="geometry" />
        </mxCell>
        <mxCell id="-LDN6dIt5EzkJQRvpiWm-3" value="" style="endArrow=none;html=1;rounded=0;entryX=1;entryY=0;entryDx=0;entryDy=0;exitX=0;exitY=1;exitDx=0;exitDy=0;" edge="1" source="-LDN6dIt5EzkJQRvpiWm-2" target="-LDN6dIt5EzkJQRvpiWm-2" parent="1">
          <mxGeometry width="50" height="50" relative="1" as="geometry">
            <mxPoint x="90" y="145" as="sourcePoint" />
            <mxPoint x="140" y="95" as="targetPoint" />
          </mxGeometry>
        </mxCell>
        <mxCell id="-LDN6dIt5EzkJQRvpiWm-4" value="" style="endArrow=none;html=1;rounded=0;entryX=1;entryY=1;entryDx=0;entryDy=0;exitX=0;exitY=0;exitDx=0;exitDy=0;" edge="1" source="-LDN6dIt5EzkJQRvpiWm-2" target="-LDN6dIt5EzkJQRvpiWm-2" parent="1">
          <mxGeometry width="50" height="50" relative="1" as="geometry">
            <mxPoint x="210" y="165" as="sourcePoint" />
            <mxPoint x="260" y="115" as="targetPoint" />
          </mxGeometry>
        </mxCell>
        <mxCell id="-LDN6dIt5EzkJQRvpiWm-5" value="&lt;font style=&quot;font-size: 48px;&quot;&gt;Text&lt;/font&gt;" style="text;html=1;align=center;verticalAlign=middle;whiteSpace=wrap;rounded=0;" vertex="1" parent="1">
          <mxGeometry x="180" y="90" width="60" height="30" as="geometry" />
        </mxCell>
        <mxCell id="-LDN6dIt5EzkJQRvpiWm-6" value="" style="rounded=1;whiteSpace=wrap;html=1;" vertex="1" parent="1">
          <mxGeometry x="280" y="200" width="1040" height="560" as="geometry" />
        </mxCell>
        <mxCell id="-LDN6dIt5EzkJQRvpiWm-7" value="&lt;span style=&quot;font-size: 36px;&quot;&gt;Text&lt;/span&gt;" style="text;html=1;align=center;verticalAlign=middle;whiteSpace=wrap;rounded=0;" vertex="1" parent="1">
          <mxGeometry x="520" y="300" width="60" height="30" as="geometry" />
        </mxCell>
        <mxCell id="-LDN6dIt5EzkJQRvpiWm-8" value="&lt;span style=&quot;font-size: 36px;&quot;&gt;Text&lt;/span&gt;" style="text;html=1;align=center;verticalAlign=middle;whiteSpace=wrap;rounded=0;" vertex="1" parent="1">
          <mxGeometry x="520" y="360" width="60" height="30" as="geometry" />
        </mxCell>
        <mxCell id="-LDN6dIt5EzkJQRvpiWm-9" value="&lt;span style=&quot;font-size: 36px;&quot;&gt;Text&lt;/span&gt;" style="text;html=1;align=center;verticalAlign=middle;whiteSpace=wrap;rounded=0;" vertex="1" parent="1">
          <mxGeometry x="520" y="420" width="60" height="30" as="geometry" />
        </mxCell>
        <mxCell id="-LDN6dIt5EzkJQRvpiWm-10" value="&lt;span style=&quot;font-size: 36px;&quot;&gt;Text&lt;/span&gt;" style="text;html=1;align=center;verticalAlign=middle;whiteSpace=wrap;rounded=0;" vertex="1" parent="1">
          <mxGeometry x="520" y="480" width="60" height="30" as="geometry" />
        </mxCell>
        <mxCell id="-LDN6dIt5EzkJQRvpiWm-11" value="" style="rounded=1;whiteSpace=wrap;html=1;" vertex="1" parent="1">
          <mxGeometry x="650" y="285" width="570" height="60" as="geometry" />
        </mxCell>
        <mxCell id="-LDN6dIt5EzkJQRvpiWm-12" value="" style="rounded=1;whiteSpace=wrap;html=1;" vertex="1" parent="1">
          <mxGeometry x="650" y="345" width="570" height="60" as="geometry" />
        </mxCell>
        <mxCell id="-LDN6dIt5EzkJQRvpiWm-13" value="" style="rounded=1;whiteSpace=wrap;html=1;" vertex="1" parent="1">
          <mxGeometry x="650" y="405" width="570" height="60" as="geometry" />
        </mxCell>
        <mxCell id="-LDN6dIt5EzkJQRvpiWm-14" value="" style="rounded=1;whiteSpace=wrap;html=1;" vertex="1" parent="1">
          <mxGeometry x="650" y="465" width="60" height="60" as="geometry" />
        </mxCell>
        <mxCell id="-LDN6dIt5EzkJQRvpiWm-15" value="" style="rounded=1;whiteSpace=wrap;html=1;arcSize=50;" vertex="1" parent="1">
          <mxGeometry x="595" y="630" width="410" height="60" as="geometry" />
        </mxCell>
        <mxCell id="-LDN6dIt5EzkJQRvpiWm-16" value="Text" style="text;html=1;align=center;verticalAlign=middle;whiteSpace=wrap;rounded=0;" vertex="1" parent="1">
          <mxGeometry x="595" y="600" width="60" height="30" as="geometry" />
        </mxCell>
      </root>
    </mxGraphModel>
  </diagram>
</mxfile>
